<svg xmlns="http://www.w3.org/2000/svg" width="24" height="24" fill="none"><path fill="#fff" d="M23.7 20.8c.2.2.3.4.3.8 0 .3-.1.5-.3.8l-1.3 1.3a1 1 0 0 1-.8.3 1 1 0 0 1-.8-.3L16 19a1 1 0 0 1-.4-.8v-.8a9.4 9.4 0 0 1-6 2.1c-2.6 0-5-1-6.8-2.9C.9 14.7 0 12.4 0 9.7c0-2.6 1-5 2.9-6.8C4.8.9 7 0 9.7 0c2.7 0 5 1 7 2.9 1.8 1.9 2.8 4.2 2.8 6.8 0 2.3-.7 4.3-2 6h.7c.3 0 .6.2.8.4l4.7 4.7zM5.5 14a5.9 5.9 0 0 0 4.3 1.8c1.6 0 3-.6 4.2-1.8a5.8 5.8 0 0 0 1.8-4.3c0-1.6-.6-3-1.8-4.2a5.7 5.7 0 0 0-4.3-1.8c-1.6 0-3 .6-4.2 1.8a5.7 5.7 0 0 0-1.8 4.3c0 1.6.6 3 1.8 4.2z"/></svg>